<?xml version="1.0" encoding="utf-8"?>
<!-- Generator: Adobe Illustrator 27.5.0, SVG Export Plug-In . SVG Version: 6.00 Build 0)  -->
<svg version="1.1" xmlns="http://www.w3.org/2000/svg" xmlns:xlink="http://www.w3.org/1999/xlink" x="0px" y="0px"
	 viewBox="0 0 800 500" style="enable-background:new 0 0 800 500;" xml:space="preserve">
<g id="_x31_87">
	<g>
		<g>
			<defs>
				<rect id="SVGID_1_" y="0.486" width="800" height="499.027"/>
			</defs>
			<use xlink:href="#SVGID_1_"  style="overflow:visible;fill:#e84621;"/>
			<clipPath id="SVGID_00000137094591280465541550000007909323993045094806_">
				<use xlink:href="#SVGID_1_"  style="overflow:visible;"/>
			</clipPath>
			<g style="clip-path:url(#SVGID_00000137094591280465541550000007909323993045094806_); fill:#292929">
				<path d="M907.41-54.832c0,0-1.058-0.001-3.102-0.003c-2.045-0.002-5.078-0.019-9.031-0.273
					c-37.588-15.997-91.645-53.938-124.201-14.418c-5.141,5.886,6.872,14.317,5.164,23.573
					c-3.422,10.938-15.42,21.023-27.429,16.801c-34.312-10.983-66.028,6.654-99.471,10.822c-2.572-0.003-6.86-0.85-8.578-3.377
					c-22.338-52.211-82.359-41.341-120.927-11.929c-4.285,3.362-9.43,4.198-12.862,1.668
					c-56.631-39.626-120.949-39.704-180.102-13.683c-5.143,2.519-12.005,0.828-17.151-0.02
					c-64.333-19.436-142.376-24.58-196.366,21.648c-1.715,0.84-4.287,1.678-6.003,0.834C85.9-38.365,74.729-66.995,47.286-67.87
					c-31.731-1.721-61.737,9.185-94.321,14.196c-20.579,3.342-40.307-0.89-60.892-2.147l0.025-10.401c0,0,1.056,0.001,3.097,0.022
					c47.474,4.938,92.92-1.741,140.081-8.418c26.582-3.335,45.463,15.205,65.198,29.537c6.007,4.215,12.867,4.224,18.867,0.864
					c59.144-36.963,130.333-22.569,195.515-14.916c7.719,0.851,15.436,0.019,22.295-2.499
					c55.73-15.083,112.334-10.807,164.662,10.298c3.432,1.688,7.72,1.692,11.149,0.855c43.724-15.939,109.74-36.061,134.653,18.679
					c2.577,5.894,11.152,5.063,17.153,2.545c26.576-10.91,54.02-10.035,82.315-15.051c14.576-3.35,7.704-17.666,11.986-24.395
					c29.979-47.098,94.323-12.512,136.198,3.432c3.953,0.242,6.987,0.257,9.032,0.26c2.044,0.002,3.101,0.004,3.101,0.004
					L907.41-54.832z"/>
				<path d="M907.432-26.602c0,0-1.057-0.001-3.101-0.004c-2.045-0.002-5.078-0.02-9.031-0.28c-3.273,0.43-5.846-1.257-8.42-2.101
					c-22.306-11.81-36.048-37.92-63.491-39.635c-7.718-0.009-20.583-1.708-20.576,6.709c-1.697,23.565-9.399,43.756-23.104,63.94
					c-6.853,10.092-23.142,15.964-30.009,7.539c-31.759-36.231-78.921-31.237-107.193,4.08c-4.284,5.045-11.144,5.878-16.292,1.664
					c-18.021-15.172-18.052-53.048-48.063-48.034c-24.009,4.18-33.423,28.577-48.847,43.709
					c-28.279,26.899-49.765-31.202-72.074-47.221c-46.337-36.248-96.044,4.093-126.888,41.09c-1.714,1.682-4.286,2.52-6.002,1.676
					c-25.739-16.023-41.199-45.5-72.93-46.38c-51.455-0.061-103.762,6.609-137.17,53.703c-3.425,5.888-12.854,12.61-18.003,6.712
					C75.638-3.027,80.742-54.363,39.58-52.729C15.569-51.074-8.44-48.578-30.729-36.821C-45.3-28.422-54.719-9.917-71.014-10.778
					c-14.579-0.859-45.462-13.521-34.32-21.925c9.428-7.564,30.882,11.821,46.312,3.422c34.289-17.634,71.153-32.74,109.748-26.802
					c24.016,3.396,34.326,29.5,42.063,51.393c1.72,5.894,6.016,15.999,14.588,11.801c20.573-10.076,29.129-35.316,52.279-41.18
					c52.3-15.087,113.181-23.431,156.949,17.864c2.575,2.528,8.579,4.218,10.293,1.695c50.558-49.598,132.879-56.232,172.38,10.308
					c4.293,6.739,14.589,12.643,21.444,5.917c22.28-20.173,50.546-63.907,82.297-36.935c13.73,11.8,20.615,42.109,40.333,33.715
					c33.434-15.11,73.728-29.37,105.48-1.557c6.008,5.899,17.155,5.07,24.011-1.654c17.137-18.497,13.685-45.435,23.106-60.573
					c18.842-31.12,62.608,7.65,90.923,26.201c2.573,0.845,5.147,2.531,8.419,2.024c3.953,0.266,6.986,0.282,9.032,0.284
					c2.044,0.002,3.101,0.003,3.101,0.003L907.432-26.602z"/>
				<path d="M907.454,1.629c0,0-1.057-0.001-3.101-0.004c-2.045-0.002-5.079-0.017-9.032-0.241
					c-26.43-4.301-33.314-33.768-54.764-47.261c-5.147-3.373-12.866-4.224-17.15,0.821c-16.275,23.547-22.256,51.315-42.822,70.649
					c-10.283,10.088-31.715,19.32-42.016,7.525c-14.591-16.01-24.909-50.531-52.344-40.464
					c-27.435,10.067-41.134,37.827-50.546,63.907c-2.569,5.047-9.427,8.405-14.576,3.349
					c-13.733-15.167-16.321-34.528-25.768-52.215c-5.152-8.422-13.733-13.483-23.163-10.127
					c-18.003,6.711-23.99,26.905-30.838,43.73c-6.848,15.983-29.153,5.015-39.451-4.255c-18.88-16.856-37.757-29.504-60.065-44.681
					c-5.148-3.373-3.44-12.629-7.733-18.526c-8.584-10.952-25.732-6.765-37.734-1.728c-24.004,10.071-31.702,34.471-47.123,54.652
					c-8.567,10.09-23.142,15.965-35.153,9.217C293.482,24.169,288.316-1.93,269.44-13.736C211.1-46.631,145.104,0.423,106.55,47.511
					c-5.141,5.886-15.43,7.557-21.438,0.816C67.942,26.423,61.918-0.518,51.608-24.939c-9.453-24.42-51.465-12.687-72.038-1.77
					C-40.146-16.632-52.136,3.554-62.411,22.9c-3.425,6.729-11.995,13.452-18.861,6.71c-11.156-10.113-30.028-16.87-27.469-33.7
					c13.728,8.433,31.758,34.547,47.177,13.523C-49.57-6.543-39.294-24.206-21.29-30.919C2.714-40.99,45.579-57.772,61.039-28.294
					c11.165,21.055,9.471,47.146,25.78,67.365c4.292,5.055,12.868,5.907,16.295,0.861c41.982-48.767,112.269-92.45,174.042-57.025
					c21.449,12.651,35.212,65.693,60.919,39.632c27.419-28.584,65.108-84.931,101.152-51.221
					c22.314,20.227,46.342,41.298,69.514,63.209c8.583,9.269,24.018,7.604,29.153-5.015c7.703-19.349,23.972-51.314,48.85-41.184
					c20.589,9.283,21.466,34.535,30.057,53.062c2.577,5.053,8.587,14.319,13.727,6.75c17.133-23.546,29.116-52.149,59.983-58.846
					c26.58-5.86,35.181,26.134,53.197,34.573c46.326,21.939,54.846-48.752,77.119-78.184c5.141-6.727,13.721-0.825,20.584,2.55
					c21.448,10.967,28.33,38.751,53.902,42.958c3.953,0.242,6.986,0.258,9.031,0.261c2.045,0.002,3.102,0.004,3.102,0.004
					L907.454,1.629z"/>
				<path d="M907.477,29.859c0,0-1.057-0.001-3.105-0.012c-27.735-0.771-38.907-29.401-59.5-43.734
					c-26.6-18.549-32.563,31.945-49.701,47.916c-17.14,15.13-46.283,31.928-63.443,21.808C712.851,44.03,720.536,2.797,693.949,0.24
					c-23.156-2.552-26.565,23.536-31.696,42.046c-5.133,15.986-18.841,32.803-35.133,35.309
					c-18.865,1.661-27.46-21.917-36.047-37.077c-2.576-4.211-5.153-9.265-10.301-11.796c-6.006-3.374-11.146,1.67-12.858,6.718
					c-1.708,8.415,5.162,21.048-3.41,24.404c-18.859,9.236-42.015,9.208-61.749-4.282c-24.024-16.021-45.475-29.513-72.067-39.645
					c-11.152-5.064-9.448-19.37-16.317-29.479c-6.01-8.424-17.151-0.021-24.008,5.021c-17.14,15.129-19.693,38.693-34.259,56.351
					c-12.851,15.977-35.999,23.524-52.303,10.879c-15.445-10.96-24.892-27.805-43.763-32.878c-2.573-0.845-4.291-4.213-5.15-6.74
					c-2.58-9.261,0.839-23.565-10.311-25.262c-58.321-7.645-102.021,37.753-138.008,78.11c-10.283,10.088-24.013-0.871-31.737-9.296
					C59.382,44.93,50.789,23.877,32.768,7.864c-5.149-5.056-6.871-13.475-10.307-20.213c-6.013-12.632-25.736-10.973-37.737-5.095
					C-46.992,1.035-43.528,43.123-64.952,63.297c-10.282,10.087-26.599-18.549-42.044-29.509c-1.716-0.844-0.861-5.051-0.864-8.418
					c14.585,8.435,28.327,34.543,38.612,26.98c23.997-18.488,23.963-62.255,56.54-75.683c14.573-5.874,42.014-9.208,48.888,7.634
					c2.577,5.895,0.01,13.467,4.303,19.364c13.733,16.008,21.466,33.693,33.485,50.541c6.009,7.582,17.165,16.854,24.878,10.971
					c46.28-36.136,99.394-105.932,156.024-68.83c18.019,12.647,32.617,37.914,54.927,53.934
					c18.02,13.488,41.162-1.634,51.439-19.297c10.275-19.347,18.834-41.22,39.408-50.454c6-3.359,16.289-5.872,19.725,0.865
					c6.013,11.791,4.31,27.781,19.75,32.008c6.004,1.69,12.865,2.541,18.87,5.073c22.305,10.127,36.043,31.185,59.203,38.788
					c12.866,3.382,33.451,7.615,38.586-6.687c3.421-10.938,0.837-26.091,12.837-32.81c5.144-2.519,12.005-1.669,16.296,2.544
					c12.877,16.007,15.465,36.21,31.77,49.697c16.304,11.803,30.865-9.222,33.429-21.844c6.842-23.559,18.822-55.528,47.126-50.444
					c24.016,4.237,19.753,36.216,36.058,49.702c12.873,11.799,36.874-2.481,50.587-12.565
					c17.142-11.764,22.272-31.115,32.549-48.778c5.996-9.252,15.418-23.548,26.574-13.435c17.164,16.013,26.617,40.433,51.24,46.315
					c4.041,0.685,7.079,0.719,9.124,0.722c2.045,0.003,3.102,0.004,3.102,0.004L907.477,29.859z"/>
				<path d="M907.455,57.932c-28.225-1.077-41.969-29.71-65.132-40.68c-11.152-5.064-19.72,5.868-24.859,13.437
					C802.9,50.03,785.759,62.635,762.61,70.182c-12.859,4.193-13.705,20.184-24.848,27.746c-1.715-0.002-3.431-0.846-4.289-2.53
					c-17.173-26.113-13.781-74.926-40.366-75.799c-12.863-0.016-5.118,34.503-17.975,43.746
					c-18.856,12.602-40.287,23.518-51.419,44.547c-0.857,0.84-3.428,3.362-5.145,1.677c-17.165-17.696-38.615-31.188-63.486-32.901
					c-19.725-1.707-40.302,4.16-59.178-6.805c-21.449-13.492-41.183-24.458-64.345-33.744c-15.44-5.91-18.885-23.59-31.756-32.864
					c-6.006-3.374-11.144,5.878-13.712,11.767c-8.561,19.349-11.974,40.386-26.541,55.519
					c-26.564,26.902-70.31,14.224-104.609,17.55c3.422-10.096,26.568-20.168,11.127-26.92
					c-22.304-9.285-27.467-31.175-41.196-42.133c-31.749-22.764-69.442,26.85-92.573,57.123
					c-11.992,16.819-35.136,31.1-51.444,12.563C53.39,58.389,38.777,16.288-3.254,3.612c-14.582-4.227-24.863,8.387-29.999,20.164
					c-6.849,15.142-3.405,31.98-5.108,47.97c0.007,8.416-3.416,17.671-10.272,23.555c-5.142,4.202-11.146,1.67-15.437-1.702
					c-13.73-11.8-25.746-24.439-42.048-33.717c-1.716-0.844-0.862-5.893-0.864-9.26c17.159,10.121,30.036,27.811,48.052,35.408
					c7.721,3.376,12.001-6.719,11.995-13.453c0.834-30.299,9.369-80.79,43.675-77.382c13.723,1.7,28.313,16.868,41.188,29.508
					c21.455,21.067,36.938,80.003,70.367,59.002c40.286-25.202,77.961-98.383,126.007-70.55c9.438,5.062,7.744,31.993,30.043,34.545
					c15.438,1.702,15.453,21.902,23.177,27.803c26.601,21.074,69.464,1.767,81.445-30.203c5.99-15.984,10.265-32.813,22.261-45.424
					c4.285-3.361,12.855-10.084,15.434-3.348c6.016,15.999,14.603,30.318,30.9,35.388c28.306,7.609,47.19,28.674,73.782,38.806
					c15.44,5.91,31.73,0.038,47.167,0.898c9.434,0.011,17.159,10.12,25.731,5.081c6.001-2.518,0.849-10.941,3.417-15.988
					c12.872,10.115,16.323,36.211,36.898,28.661c18.005-5.87,30.857-21.005,44.567-33.614c13.713-10.925,3.401-36.188,20.545-47.109
					c9.428-6.722,15.442,6.752,19.735,14.333c10.306,19.371,10.337,58.087,27.485,54.742c16.291-3.348,35.149-14.267,54.006-26.869
					c12.857-8.401,17.991-21.862,26.558-33.635c6.854-8.409,16.279-18.498,28.292-10.908c21.449,13.493,33.479,42.124,61.732,41.57
					L907.455,57.932z"/>
				<path d="M907.479,85.939c-23.085-4.669-38.535-23.205-59.982-32.489c-18.872-6.755-32.578,12.587-48.009,19.302
					c-9.431,3.355-18.863,4.185-28.294,6.699c-5.143,2.519-10.286,6.721-12.854,11.768c-7.706,15.983-8.548,35.34-21.401,48.792
					c-13.741-25.267-8.621-58.086-30.935-78.314c-10.281,11.772-4.266,27.771-10.259,40.389c-1.713,2.523-4.284,4.204-6.858,2.517
					c-25.743-20.231-44.591,3.313-54.864,26.026c-1.712,3.365-7.713,5.882-11.145,3.354c-21.454-18.542-37.773-49.705-66.926-44.689
					c-56.592,10.032-104.638-17.801-150.965-40.582c-27.404,47.943-83.148,45.351-132.03,45.292
					c-10.291-0.012-25.727,0.811-26.574,13.435c-0.852,6.732,6.873,15.159,3.444,17.68c-7.713,6.724-15.443-8.436-22.309-14.336
					c-8.582-8.427-3.446-21.045-5.168-29.464c-2.586-15.996-4.319-38.723-18.044-43.789c-24.019-7.604-44.577,21.83-50.562,44.548
					c-7.695,29.449-37.698,44.563-59.147,31.913C60.277,92.906,48.24,53.333,18.203,25.521
					c-12.015-10.956-35.17-11.826-37.729,5.847c-1.701,17.673,15.463,33.686,7.759,52.193c-7.703,18.507-21.397,53.841-42.842,46.24
					c-20.587-6.758-30.041-32.861-52.345-42.147c-0.858-0.842-0.005-5.892-0.008-9.258c20.587,5.916,30.895,27.813,49.767,36.252
					c20.59,10.125,28.282-22.691,35.132-36.992c6.85-13.458-0.879-26.093-4.318-38.722C-29.822,23.78-12.683,9.493,1.9,14.56
					c42.89,14.36,52.363,64.872,88.402,91.849c13.729,10.958,35.161,0.884,44.586-10.047c23.134-26.064,42.814-80.749,77.988-64.715
					c12.011,5.906,16.315,27.795,28.334,43.801c3.435,5.055-13.712,10.926-13.704,21.868c0.863,6.734,5.158,15.998,13.734,16.008
					c-1.726-13.469,13.706-19.342,24.853-21.012c31.729-2.487,65.179,4.287,94.326-9.145c23.146-10.914,23.124-37.848,37.688-58.031
					c0.855-1.682,4.288,0.847,6.005,2.532c10.299,10.112,17.169,21.904,30.893,26.129c27.449,8.45,49.765,32.043,77.205,29.552
					c45.449-3.313,79.765,12.721,110.662,43.9c1.717,2.527,7.719,1.692,8.574-1.673c10.273-22.713,25.688-50.47,54.855-36.968
					c1.715,0.002,2.571-1.681,3.428-3.363c3.418-15.146-0.025-31.142,9.398-44.598c24.885,19.389,20.629,58.942,39.515,84.215
					c0.001,0.842,3.428-3.362,5.142-5.886c7.705-15.982,7.688-37.024,25.692-42.895c23.149-6.705,39.435-18.47,57.432-32.756
					c5.999-5.043,13.716-6.717,21.439-1.658c19.733,12.649,35.185,31.184,59.111,34.071L907.479,85.939z"/>
				<path d="M907.543,113.999c-22.269-4.953-38.58-26.856-62.59-24.36c-6.003-0.007-11.144,5.037-16.289,5.872
					c-20.58,2.5-48.035-13.524-62.599,4.975c-17.135,21.863-13.678,55.534-35.961,73.183c-6.009-7.583-0.875-22.727-9.451-23.578
					c-5.146-0.848-11.146,2.512-17.151,0.821c-18.014-5.913-37.74-9.304-52.308,4.987c-3.438-9.263,6.843-22.717-0.021-25.251
					c-10.295-5.062-13.699,27.759-25.715,15.12c-20.597-18.542-37.775-53.072-70.357-45.535
					c-12.005,2.511-22.288,11.756-35.151,11.741c-41.165-1.732-81.473-3.465-122.637-4.355
					c-46.311-1.739-102.931-27.899-139.783,1.516c-7.713,5.882,12.021,18.531,22.319,27.802c3.433,3.371,5.152,9.265-0.851,9.257
					c-16.294-0.02-34.298,6.692-47.17-5.106c-13.73-10.959-24.03-22.754-36.903-34.553c-7.725-7.584,0.842-19.358-1.738-29.461
					c-1.72-5.052-6.011-10.107-12.013-8.431c-9.43,4.197-13.711,12.609-17.992,21.021c-8.563,17.665-10.262,37.863-24.83,50.471
					c-5.142,4.202-9.425,10.089-12.855,10.085c-18.009-0.022-29.172-18.552-40.331-32.032C60.274,89.54,42.24,57.534,11.349,33.93
					c-6.006-4.216-15.436-0.86-12.857,7.56C6.229,65.066,23.4,91.179,7.979,111.36c-15.42,20.182-35.961,72.341-65.134,52.106
					c-19.735-14.332-27.474-39.592-49.778-49.719c-1.716-0.844-0.864-8.418-0.007-8.417c25.732,6.764,31.762,40.439,54.065,48.882
					c24.877,9.289,41.996-31.092,54.844-52.118c11.99-20.186-4.321-42.089-10.342-63.98c-1.722-8.419,6.849-15.142,14.57-10.924
					c34.318,19.4,50.641,55.611,75.533,85.1c8.584,10.11,15.455,22.744,29.178,25.286c1.716,0.843,1.713-3.365,3.428-3.363
					c12.863-0.827,25.726-1.652,31.718-15.112c11.131-22.712,13.678-55.534,40.256-63.919c11.146-3.353,16.304,12.645,15.453,21.902
					c-1.709,7.573-5.989,16.827-0.84,21.883c18.882,19.381,42.067,58.126,67.778,37.957c4.285-3.362-12.874-13.482-17.17-23.588
					c-4.296-10.105,8.563-15.981,17.138-16.813c54.882-3.301,108.912,0.131,163.793-4.012c29.155-2.49,58.329,17.746,84.907,9.361
					c47.154-15.936,82.331,5.149,108.945,42.214c0.858,0.843,3.431,0.846,4.288,0.005c11.142-8.403,16.27-30.281,26.564-26.06
					c13.727,6.75,30.89,21.08,46.321,15.206c8.573-2.515,7.707-14.299,14.562-21.024c0.858,0.001,2.574,1.687,3.433,2.529
					c8.588,15.161,0.886,35.351,13.759,47.15c0.858,0.843,2.57-2.522,4.283-5.045c15.411-31.965,16.231-80.782,65.977-72.305
					c2.573,0.845,6.859-0.833,10.289-2.513c2.571-0.838,6.004,1.69,9.434,0.853c8.574-1.673,16.288-7.556,25.723-5.861
					c21.443,5.918,36.034,21.085,56.588,26.943L907.543,113.999z"/>
				<path d="M907.565,142.55c-23.125-4.045-35.152-30.152-57.448-29.337c-10.29,0.829-17.996,15.97-30.007,10.906
					c-15.441-6.752-36.036-23.61-50.602-6.795c-21.42,24.384-18.811,71.52-50.532,81.582c-1.715,0.84-5.148-3.372-7.721-3.376
					c-10.292-0.854-17.153-2.545-27.447-5.924c-7.721-3.376-19.723,1.66-24.003,11.754c-9.416,21.031-11.971,44.595-29.108,61.407
					c-2.571,1.68-7.717,2.517-7.719-0.009c-0.883-31.985,18.818-61.42,11.932-94.253c-0.001-0.842-2.574-1.687-4.29-2.53
					c-17.166-18.538-25.763-45.481-53.21-51.406c-16.297-4.228-20.569,15.967-29.138,24.374c-5.143,4.202-13.725-3.383-21.442-3.393
					c-60.887,0.769-120.061-1.827-180.106-20.416c-23.16-7.603-59.189-21.955-72.895-1.771c-5.139,8.411,24.877,10.13,33.463,22.766
					c4.293,5.896-3.411,23.563-11.13,23.553c-24.011,0.813-47.165,1.627-71.172,8.332c-3.429,1.679-8.573,2.515-9.434-0.853
					c-6.873-16-13.766-56.409-28.33-37.909c-10.281,12.613-16.257,46.272-41.988,41.191c-23.158-5.078-37.751-21.929-54.058-37.94
					C67.15,108.906,53.403,76.064,21.662,62.56c-0.857-0.001-0.854,5.049-0.851,8.415c1.735,25.252,24.92,63.156,4.346,73.231
					c-21.432,10.074-44.574,24.355-57.42,47.065c-5.996,9.251-16.289,6.714-24.012-0.029
					c-18.022-16.014-27.475-40.434-51.494-49.721c-0.858-0.843-0.005-5.892-0.007-9.258c24.875,7.604,33.472,33.707,51.494,50.562
					c6.008,5.899,14.586,9.276,20.583,1.708c16.274-24.389,41.136-35.301,56.556-55.483c17.134-21.863-9.474-51.354-6.924-79.968
					c28.311,15.184,44.63,45.504,66.944,68.256c18.883,20.223,43.784,59.812,70.355,43.852c16.287-9.239,8.538-47.965,28.261-50.467
					c6.002-0.835,19.732,9.282,28.314,18.551c7.725,8.426,4.309,26.097,14.601,27.793c23.16,6.761,48.024,0.899,72.891-4.122
					c4.287-0.836,4.277-12.62-0.015-17.675c-10.298-9.271-36.889-16.878-29.175-22.76c37.708-31.939,97.768,7.692,146.654,11.959
					c42.882,4.26,84.904,6.835,127.777-0.688c10.289-2.512,19.71-17.651,33.434-15.11c28.305,5.926,36.045,34.552,56.64,50.569
					c3.433,3.371,6.859-1.675,9.43-4.197c3.454,29.463-10.245,57.222-7.649,86.684c21.422-21.858,14.521-74.05,53.972-69.794
					c14.58,1.701,30.888,19.396,39.461,16.039c28.291-11.75,23.11-55.523,44.531-79.064c11.997-11.769,33.442-4.169,47.171,5.948
					c3.433,2.529,8.577,1.694,11.148-0.828c23.139-20.173,44.595,0.895,64.328,12.702c4.289,2.53,9.437,5.061,14.551,5.417
					L907.565,142.55z"/>
				<path d="M907.588,170.304c-27.418-9.079-47.164-37.72-81.455-21.77c-13.716,6.717-47.188-26.99-64.315,3.29
					c-11.132,20.187-17.976,41.221-32.539,60.562c-10.28,14.296-20.561,26.067-29.982,41.206c-2.57,3.363-5.997,8.41-10.286,6.721
					c-8.578-3.377-0.016-20.2-7.736-22.734c-6.005-2.532-12,7.561-17.999,12.603c-18.853,15.97-39.408,50.454-63.433,34.432
					c-6.864-4.215,0.844-17.673,5.983-25.242c15.418-22.706,23.975-46.263,22.24-71.516c-1.733-22.728-15.47-41.261-34.348-55.592
					c-10.296-6.746-20.58,1.659-21.431,10.916c-1.7,18.515-14.555,29.441-32.568,24.37c-4.289-1.689-9.436-3.378-13.725-4.226
					c-66.042-11.862-124.369-27.083-190.413-41.47c-2.573-0.845-10.294-3.379-8.574,2.515c2.578,6.737,10.299,10.113,17.162,13.488
					c27.453,13.499,59.181,10.171,84.921,26.194c-35.163-3.409-74.625-19.448-104.625-0.967
					c-8.571,5.881-18.853,15.969-30.006,11.748c-30.024-11.819-55.738,4.983-84.891,10.84c-6.859,1.675-9.438-6.745-14.586-9.276
					c-11.13,23.554-2.526,58.915-23.956,70.672c-8.571,5.881-30.89-21.079-30.044-36.229c-0.001-0.842,9.434,0.853,9.43-4.197
					c0.835-28.616-31.764-42.964-51.502-60.663c-15.448-14.327-27.467-30.334-43.772-43.82c-8.581-6.744-12.86,3.351-11.997,10.927
					c3.448,22.729,12.899,45.466,6.057,68.183c-0.855,2.524-5.145,0.836-7.719-0.851c-34.32-22.766-60.029-0.072-72.868,31.896
					c-2.566,7.572-12.001,6.719-18.864,3.344c-21.449-13.493-33.475-37.074-57.493-46.361c-0.858-0.843-0.005-5.892-0.008-9.258
					c3.431,0.004,6.005,2.532,9.436,3.378c24.021,10.971,39.495,58.965,60.063,42.156c24.854-21.012,41.981-50.45,80.583-36.937
					c4.289,1.688,3.424-8.413,3.42-13.463c-1.732-21.886-12.897-42.941-7.77-64.818c1.71-5.89,13.723,2.542,17.157,7.596
					c30.901,36.229,67.796,60.682,102.124,91.865c12.874,13.482,1.743,36.194,12.902,49.674c5.15,5.898,7.709-11.774,9.419-18.505
					c6.842-23.559,5.106-48.811,17.954-68.996c8.583,9.269,1.741,32.828,19.747,28.641c20.577-5.868,41.148-19.31,62.593-12.55
					c18.015,6.755,29.153-5.015,42.01-14.258c11.999-9.244,31.733,3.405,47.164-3.31c-24.017-5.079-46.323-18.572-66.06-33.746
					c11.146-3.354,22.296-0.815,33.446,1.723c63.473,16.068,123.516,31.291,188.692,33.894c9.434,0.012,17.156,5.913,26.592,8.449
					c5.147,0.848,10.289-2.513,11.144-6.72c1.705-12.624,5.977-31.977,18.844-28.595c45.461,12.68,60.085,69.09,41.25,109.468
					c-6.85,14.3-17.13,26.913-17.976,42.904c0.004,4.208,4.293,5.897,7.724,5.9c30.867-5.854,38.562-36.145,54.837-59.693
					c3.427-4.204,5.995-10.093,11.142-9.245c13.722,1.7,9.448,19.37,14.601,28.634c0.858,0.843,2.573,0.003,3.43-0.837
					c5.999-5.885,5.991-15.143,12.849-19.343c13.713-10.925,25.711-21.011,32.559-36.995c8.56-19.348,13.688-41.226,30.828-55.514
					c17.997-15.97,36.886,11.828,56.609,11.851c10.291,0.013,14.566-15.974,25.717-13.436c20.586,5.075,31.751,26.13,52.305,31.156
					L907.588,170.304z"/>
				<path d="M907.61,198.854c-17.98-4.793-31.711-16.593-46.3-28.394c-13.729-10.116-24.011,1.655-35.152,9.216
					c-1.714,1.682-5.145,1.677-6.86,0.833c-16.301-9.278-42.042-26.984-53.177-9.322c-40.257,62.236-76.213,140.469-158.535,146.262
					c17.144-9.237,43.72-20.147,44.561-42.03c-21.431,10.916-47.996,36.135-68.59,20.118c-18.021-14.33,11.113-43.754,26.539-58.044
					c17.139-15.972,12.829-42.91,5.952-63.96c-3.439-10.105-9.453-25.262-22.315-21.911c-10.289,2.513-9.418,19.347-20.564,22.701
					c-19.72,5.868-39.444,5.003-55.727,20.133c-2.571,1.681-8.573,3.356-10.29,0.829c-37.759-32.871-80.656-55.647-130.396-55.708
					c-2.572-0.003,1.716,0.844,0.86,2.526c22.304,9.285,51.459,5.954,65.196,27.011c5.151,7.582-5.986,21.035-16.272,26.915
					c3.423-9.254,4.27-22.72-9.452-23.578c-21.44-1.709-38.58,13.421-58.298,20.972c-5.145,1.677-9.431,3.355-14.575,4.19
					c6.854-7.566,18.857-10.919,21.422-21.016c0.856-2.524-3.433-3.371-5.148-2.531c-30.864,10.064-59.158,17.605-94.324,9.987
					c-50.607-12.686-74.577,40.311-89.123,82.377c-0.856,0.841-6.003-0.007-9.435-1.694c-12.87-8.433-17.169-21.904-29.182-30.335
					c-11.154-8.43-18.003,6.712-24.857,14.279c-6.02-20.208,11.114-42.912-3.479-61.447c-4.291-4.213-9.439-8.428-11.159-13.48
					c-6.875-18.525-15.465-36.211-32.623-45.49c-0.858-0.843-4.288,0.836-5.144,2.518c-8.555,26.923,22.351,68.203-2.513,76.59
					c-16.289,5.872-45.48-37.088-66.901-13.547c-11.139,11.771-11.983,27.761-21.406,42.059c-3.427,4.204-10.287,4.196-15.435,1.664
					c-22.306-10.969-37.758-31.188-62.634-39.634c-0.858-0.843-0.005-5.892-0.008-9.259c6.86,0.008,11.152,4.222,17.157,6.754
					c19.731,9.282,37.77,46.337,58.34,31.212c14.57-10.083,12.836-34.494,29.98-42.89c20.574-10.076,37.74,9.304,55.756,16.9
					c5.146,1.689,7.716-2.516,8.57-6.723c2.552-26.089-18.913-58.099-1.771-71.545c11.142-8.403,29.176,23.602,46.338,37.09
					c4.29,3.372,3.437,8.421,3.441,13.471c0.006,7.575,8.586,13.477,10.308,21.896c1.725,11.786-5.984,23.56-0.829,35.35
					c4.285-3.362,9.427-7.564,14.574-5.033c12.869,6.749,19.741,21.066,30.897,31.179c2.575,3.37,8.582,8.427,11.151,4.222
					c12.85-18.501,6.828-42.076,23.11-56.365c27.423-24.376,64.291-33.59,101.178-20.079c17.156,5.912,32.579-10.903,48.868-16.775
					c12.859-5.035,26.588,4.24,38.594,4.255c16.294,0.019,41.159-5.843,46.321,15.205c3.426-5.045,11.14-10.928,7.705-15.982
					c-18.028-25.272-54.041-17.74-79.778-31.238c-2.574-1.687-7.72-1.693-7.724-6.743c53.174,5.955,104.637,16.959,151.828,48.158
					c4.29,2.53,8.58,5.06,12.866,3.382c15.433-5.031,30.009-8.38,47.157-11.727c13.72-2.509,11.131-22.712,22.275-26.907
					c16.288-7.555,29.172,17.71,32.613,32.023c5.162,21.048,6.039,45.458-8.527,61.432c-14.566,15.133-35.128,41.201-25.685,52.154
					c15.453,21.061,46.297-15.095,69.447-20.117c6.003-0.835-6.847,16.825-10.271,26.079c24.865-6.703,46.293-20.145,62.571-40.325
					c25.703-30.27,31.675-70.663,60.812-96.72c14.567-13.449,36.875-0.797,51.463,11.845c2.574,0.845,5.146-0.835,7.718-1.674
					c9.428-6.722,17.994-18.495,30.006-10.906c16.304,11.803,30.891,22.763,48.873,28.902L907.61,198.854z"/>
				<path d="M907.633,227.183c-19.694-2.824-31.715-20.513-46.304-33.156c-3.432-2.529-7.723-5.901-10.294-4.221
					c-30.001,17.639-53.157,15.087-81.471-1.781c-1.716-0.844-6.002,1.676-6,3.359c-32.521,84.129-115.648,157.255-210.854,137.782
					c28.289-12.591,73.742-10.853,87.44-41.138c-18.003,7.554-36.863,15.948-57.446,14.24
					c-11.148-0.014-15.445-11.803-18.883-20.224c-4.294-8.422-0.017-21.041,7.694-30.291c9.425-10.93,19.71-18.493,33.426-25.21
					c14.573-6.716,11.111-46.279-6.04-46.299c-14.578,0.824-30.869,4.171-47.164,3.31c-3.43-0.004-6.858,1.675-9.431,2.514
					c-18.001,10.079-23.981,38.688-47.138,36.136c-25.729-2.556-35.186-32.026-38.635-55.597c-1.72-5.894-10.299-9.271-17.16-10.121
					c22.313,19.386-11.113,43.754-24.822,58.888c-2.582-11.787,8.56-18.506,8.553-28.606c0.851-9.258-11.157-10.956-18.015-7.597
					c-47.149,21.827-96.021,34.393-139.731,67.167c-6,4.201-6.852,11.775-5.131,18.511c-7.724-6.743-4.303-18.522-0.021-26.092
					c6.851-12.617,23.142-15.964,33.425-26.052c-12.006-0.015-20.59-9.283-30.882-11.821
					c-41.173-11.833-62.574,36.959-67.692,71.462c-1.706,10.939-15.424,15.132-25.717,12.594
					c-15.439-4.227-18.886-24.431-33.468-27.816c-18.013-5.071-16.272,26.914-23.979,40.372c-1.713,3.364-9.431,4.197-11.15-1.697
					c-2.578-7.578-2.584-14.311-0.875-21.885c8.547-37.023,10.23-76.58-23.234-101.029c-1.712,3.365-0.852,5.891-0.85,9.258
					c3.448,22.73,9.478,56.404-16.242,65.632c-1.715-0.002-6.006-4.216-8.582-7.586c-11.163-18.531-27.482-51.375-51.484-37.937
					c-15.43,8.398-16.27,28.598-20.545,45.426c-2.566,10.097-11.136,16.82-21.431,10.916c-21.45-12.651-40.327-26.141-65.202-32.904
					c-0.858-0.843-0.005-5.892-0.007-9.259c26.588,4.24,43.757,26.145,66.919,36.273c5.147,2.531,12.007,0.855,14.575-4.191
					c10.276-18.504,6.821-50.492,31.687-53.829c25.725-3.336,36.896,25.294,54.916,39.625c6.865,5.059,11.145-5.878,12.854-12.609
					c5.985-22.718-3.464-42.93-3.482-64.814c0-0.841-0.004-5.892,1.713-3.364c17.171,24.429,42.057,44.659,37.793,75.796
					c-2.558,19.356-11.975,39.544-3.385,57.23c0,0.842,2.572-0.839,3.428-2.521c7.709-12.616,10.259-41.23,25.699-36.163
					c13.724,3.384,16.31,20.221,29.18,28.653c7.723,5.06,21.443,5.076,23.151-4.181c6.829-39.55,29.086-90.024,74.545-80.711
					c21.442,3.393,39.461,16.039,60.892,5.965c-14.566,15.974-37.718,20.155-53.142,36.128c42.868-13.416,82.3-34.41,123.449-52.878
					c10.287-4.196,26.576-10.91,31.731,1.721c2.579,8.42-6.848,16.825-7.697,26.924c13.713-10.925,29.995-25.214,29.125-41.207
					c-0.866-10.943-18.018-11.805-27.457-18.55c14.58,1.701,31.733,4.247,39.462,16.881c10.303,15.163,15.462,32.844,31.765,43.805
					c20.593,14.334,33.434-15.11,48.862-24.35c11.143-6.72,24.009-4.179,36.015-4.165c11.148-0.828,16.281-15.972,24.001-14.28
					c22.302,6.76,24.907,48.006,10.339,60.613c-17.141,14.288-41.998,28.566-40.266,50.452c1.747,41.244,50.609,16.053,76.328,5.983
					c-13.698,28.601-52.287,31.079-78.863,41.989c34.309,7.616,72.891-4.121,103.748-22.601
					c41.144-26.043,68.557-62.202,84.815-106.791c2.566-8.414,9.416-21.872,19.71-17.651c24.021,10.971,45.466,18.571,71.183,4.294
					c16.286-9.239,30.03,19.394,47.188,28.673c4.29,2.53,8.58,5.061,14.551,4.641L907.633,227.183z"/>
				<path d="M907.655,254.966c-20.556-7.04-34.295-29.782-56.59-27.284c-29.154,4.173-55.746-4.275-84.048-7.676
					c-3.431-0.004-7.715,4.199-10.285,7.563C714.774,307.478,616.197,362.91,527.842,330.82c1.714-1.681,3.429-2.521,5.144-3.36
					c33.438-7.535,68.6-7.493,95.167-29.345c-25.722,7.545-63.447,16.758-72.9-8.504c-6.016-15.999,7.686-39.55,1.666-61.44
					c-2.577-6.737,3.42-13.463,9.421-15.981c8.572-4.198,21.445,6.759,24.011-1.654c2.566-8.413-9.444-14.32-18.881-17.698
					c-10.293-3.379-24.015-4.237-31.727,4.17c-12.851,15.977-18.836,38.695-40.272,42.877
					c-23.151,4.181-47.178-14.365-51.484-37.095c-0.864-8.418,1.703-15.99,4.27-23.562c-19.714,12.602-25.696,39.528-47.985,48.76
					c-1.715,0.84-0.86-3.368-0.004-5.05c3.42-12.621,12.845-23.552,13.691-37.018c-42.02,1.633-84.016,33.566-125.167,47.826
					c22.293-4.182,44.579-17.622,68.596-12.543c0.001,1.683,0.86,4.209-1.712,4.207c-31.733-4.247-66.03,4.129-87.451,26.828
					c-9.424,11.772,11.166,22.739,15.464,34.527c0.86,3.368,2.578,7.579,0.008,10.942c-3.427,3.362-8.575-0.011-11.15-3.38
					c-8.587-13.477-20.6-22.75-31.757-33.706c-1.718-2.526-2.58-9.261-3.438-8.421c-13.715,7.56-2.554,23.564-2.544,36.189
					c-0.852,5.891-8.568,9.248-14.571,9.241c-9.434-0.012-11.159-13.48-16.303-11.803c-13.718,5.033-27.429,17.642-42.871,10.048
					c-10.295-5.063-18.026-21.905-27.456-17.708c-13.716,7.559-3.407,29.455-4.253,44.604c0.002,2.524,1.722,8.418-2.566,7.571
					c-10.294-3.379-18.877-12.648-28.313-16.867c-22.306-10.969-6.897-47.143-9.49-71.554c-0.86-3.368-1.721-7.578-2.578-7.579
					c-18.858,10.078-15.401,44.591-32.555,42.045c-24.014-2.554-27.477-42.958-48.923-52.242
					c-22.305-10.127-16.265,37.015-30.83,53.83c-4.284,4.203-10.286,5.88-15.435,2.507c-22.308-13.494-44.611-22.779-70.342-27.019
					c0,0-0.005-5.892-0.008-9.258c23.156,2.553,43.746,12.678,63.481,26.169c5.147,3.373,12.012,7.59,16.296,3.386
					c17.142-13.446,12.834-37.86,23.11-56.364c6.851-12.617,20.576-6.708,27.445,3.399c11.161,16.847,18.901,44.632,36.909,42.97
					c17.15-0.82,20.558-30.276,27.403-49.626c0.856-0.84,2.57-3.363,4.286-2.52c6.007,5.057,6.013,12.632,7.733,19.368
					c4.309,26.939-19.675,63.102,6.065,79.126c5.147,3.372,13.727,6.749,21.447,10.125c2.561-15.147-4.313-31.147,2.536-46.289
					c1.712-4.206,6.855-6.725,9.43-4.197c15.445,11.803,31.758,35.389,53.184,19.423c12.855-10.085,11.985-26.077,21.41-37.008
					c1.714-1.682,4.285-3.362,6.001-2.519c3.434,3.371,2.584,13.471,6.012,10.949c11.143-7.562,12.84-30.285,29.134-30.265
					c-2.564,10.938-12.846,22.71-1.689,31.982c11.156,10.113,18.89,29.481,34.326,29.5c-0.867-11.785-12.022-19.373-17.175-29.48
					c-5.154-10.948,8.562-17.665,16.275-22.706c-6.001,2.518-11.144,5.878-17.144,9.238c8.566-10.932,22.283-16.807,34.285-21.843
					c35.148-15.108,67.724-31.061,102.016-44.486c6.001-2.518,15.435-0.823,14.584,6.751c-1.705,11.781-11.988,21.869-12.836,34.493
					c21.43-12.599,32.56-35.311,47.124-53.81c1.717,2.527,0.861,5.051,0.863,7.576c-1.707,10.098-5.987,19.352,0.022,28.617
					c9.445,15.162,22.324,33.694,42.902,29.51c24.865-5.02,26.558-32.794,46.273-44.553c14.571-9.241,31.729-0.804,48.027,3.424
					c10.293,3.379,14.594,19.376,6.023,25.257c-9.428,6.723-27.445-3.399-32.58,9.22c-6.847,17.667-3.4,37.872-11.104,56.379
					c-0.855,2.524,0.862,5.052,2.578,5.896c1.716,0.844,4.288,0.847,6.004,1.69c18.886,23.59,47.17,4.265,70.323,2.609
					c-25.707,26.061-66.873,22.643-99.451,34.39c93.499,29.57,189.495-35.123,227.163-118.404c1.714-1.681,4.283-5.045,5.999-4.201
					c26.593,9.29,51.467,15.212,80.617,6.83c17.148-4.188,30.027,15.187,45.471,24.463c5.148,2.531,9.438,5.061,14.552,6.132
					L907.655,254.966z"/>
				<path d="M907.678,283.591c-2.541,0.549-5.114-0.296-6.83-1.14c-20.591-11.809-39.48-40.448-65.191-20.279
					c-2.571,1.681-6.859,1.676-9.434-0.011c-22.307-12.652-53.191-27.839-74.612-5.14c-24.849,26.903-53.992,44.544-78.841,70.606
					c-1.714,1.681,7.722,5.06,3.437,7.579c-50.581,20.14-110.612,19.226-160.369-3.56c-0.858-0.843,6.857-4.2,11.144-5.878
					c26.58-5.86,54.023-4.985,78.025-17.582c-20.582-0.866-60.023,8.344-60.897-12.698c-0.011-12.626,18.84-33.645,6.825-43.759
					c-9.439-7.587-19.71,17.651-28.289,13.433c-11.152-5.063,9.42-17.664,5.122-29.452c-29.988,32.789-66.033-0.921-93.492-21.154
					c-1.716-1.686-4.286,1.678-6.858,2.516c-0.002-2.525,0.854-4.207,1.711-5.889c-11.144,6.72-23.983,37.005-31.712,23.529
					c-6.87-12.634,21.414-31.958,11.116-40.387c-12.872-10.958-35.151,10.899-53.154,18.453c6.003,0.007,13.719-3.351,17.152,0.862
					c7.726,9.268-11.135,17.662-17.989,25.229c-1.714,1.681-2.569,4.206-2.568,5.889c0.004,5.05,3.438,9.262,3.441,14.313
					c0.866,10.942,0.018,21.884,2.599,32.828c-5.161-20.206-23.188-42.111-10.341-63.139c2.57-3.363-6.863-3.375-11.15-3.379
					c-21.436,4.183-41.156,9.209-60.013,21.812c-6.857,5.042-7.709,12.616-2.558,19.355c9.441,10.112,25.746,23.599,15.466,37.053
					c-6.852,10.092-17.152-0.02-24.873-4.238c0.862,5.893,6.868,10.108,12.016,12.64c4.289,1.688,11.151,3.38,14.578-0.824
					c6.854-7.566,5.988-18.51,0.836-26.933c11.159,12.639,8.606,37.886-7.688,38.708c-24.868,1.653-49.737,2.466-74.605,4.119
					c-18.865,0.818-33.454-10.982-48.896-19.418c-1.716-0.844-6.006-3.373-6.004-0.849c-1.705,12.623,12.02,18.531,19.745,26.958
					c-16.296-3.387-31.731-1.722-33.431,17.635c0,0.842-2.571,1.681-3.43,0.838c-12.012-6.748-15.457-26.111-29.177-24.444
					c-13.72,2.509-18.875-10.122-30.023-10.136c-6.86-0.009-7.706,15.141-13.71,14.291c-27.444-2.557-47.191-31.198-53.217-59.822
					c-0.861-5.051-4.302-17.681-10.3-11.796c-13.712,11.768-13.683,48.801-36.846,37.831c-18.874-9.28-38.607-21.088-59.797-15.451
					c-4.034,0.012-7.075,0.008-9.12,0.006c-2.045-0.003-3.102-0.004-3.102-0.004l-0.008-10.174c0,0,1.057,0.001,3.102,0.004
					c2.045,0.002,5.078,0.006,9.067,0.044c24.674-3.926,43.558,17.981,65.855,19.691c18.01,0.863,18.846-26.069,24.837-41.213
					c1.711-5.048,8.563-15.14,13.716-6.717c8.588,15.16,11.174,31.155,21.475,44.635c6.869,10.108,15.454,21.902,28.317,21.918
					c2.573,0.003,5.143-4.203,7.713-6.725c4.282-6.729,5.986-21.035,11.135-17.662c11.154,7.589,6.887,33.676,21.467,35.377
					c14.58,0.858,24.021,10.97,32.604,21.081c1.717,1.685,5.149,3.372,6.005,2.532c4.281-8.412,10.278-15.979,11.13-24.396
					c1.708-8.415-6.874-16.842-4.309-26.098c0.856-1.682,3.43-0.837,5.145-0.835c5.146,1.689,8.58,5.901,13.728,8.433
					c13.726,5.908,25.736,10.973,38.605,16.88c16.299,6.753,33.445,0.04,50.595-2.464c5.144-0.836,10.291,0.854,15.437,0.86
					c-6.869-11.792-20.599-21.908-11.177-36.206c1.714-1.681,6.006,3.374,7.723,5.901c5.152,8.423,14.598,23.584,23.167,16.02
					c13.711-13.45-7.739-26.943-15.468-39.577c-1.718-3.369-3.436-8.421-0.866-11.785c21.425-17.649,50.573-29.397,78.877-25.155
					c-10.28,13.454-6.84,26.926,1.747,40.402c1.712-3.364,1.709-6.731,0.85-10.099c-2.579-7.578-4.301-15.997,2.555-21.881
					c5.999-5.043,20.571-13.442,14.565-18.5c-9.44-7.586-24.012,0.813-36.017,2.482c24.004-10.913,46.291-22.67,71.153-31.898
					c5.145-1.677,9.435,1.695,8.581,6.744c-1.703,14.307-13.701,24.393-15.405,38.699c18.868,1.706,28.276-29.425,43.704-40.348
					c-0.85,10.099-6.845,19.351,2.594,26.095c18.877,13.49,38.619,36.238,62.623,26.167c17.146-7.555,23.133-26.906,37.704-36.989
					c4.3,15.155-9.412,26.922-9.4,41.23c6.86,0.009,13.712-11.767,17.148-5.03c10.303,16.005-6.833,35.343-3.392,48.814
					c4.306,23.572,43.747,14.361,66.899,11.864c-29.144,17.64-63.448,15.073-95.171,24.294c-1.715,0.84-2.571,2.522-1.713,2.523
					c40.317,15.198,88.349,23.673,126.923,3.519c44.576-21.83,77.137-56.3,113.986-89.923c17.995-17.653,45.451,0.055,67.753,5.974
					c7.72,1.692,15.43-7.557,24.007-6.705c16.294,0.861,28.31,12.659,41.182,22.774c4.29,3.372,9.437,5.062,14.551,6.017
					L907.678,283.591z"/>
				<path d="M907.715,311.992c-15.421-1.776-24.864-15.255-37.733-22.003c-2.573-0.845-5.146-0.007-6.86,0.833
					c-9.427,8.405-18.845,26.911-29.143,18.482c-18.881-17.698-32.633-56.432-62.639-45.526
					c-24.862,9.229-54.862,28.552-56.558,52.116c-1.707,10.94,16.315,27.795,3.46,37.88c-8.571,5.882-18.012-4.23-28.303-4.243
					c-62.601,3.291-121.772,4.063-186.101-8.64c-0.858-0.843-1.717-2.526-1.718-3.368c0.852-7.574,8.568-10.09,14.569-12.608
					c12.86-4.192,25.724-4.177,38.584-7.528c-24.017-6.763-46.303,6.678-70.314,7.49c-0.003-3.366,2.568-5.047,4.282-7.569
					c17.996-15.971,58.299-19.289,54.846-48.752c-20.574,9.234-49.718,26.874-61.737,10.026
					c-12.876-16.008-30.91-47.171-51.493-48.879c-12.007-0.856-12.846,21.869-25.706,26.061
					c-9.431,3.355-24.017-5.078-21.453-16.859c3.419-14.305,20.563-22.701,17.122-37.855c-0.001-0.842-3.431-0.004-4.288,0.836
					c-11.136,15.137-23.133,26.906-37.702,38.672c-1.714,1.681-0.854,5.049-0.852,7.574c0.003,3.367,3.436,6.738,3.439,10.104
					c-5.978,31.135,7.763,57.243,14.647,85.869c-18.877-12.648-17.181-37.055-24.056-55.58
					c-6.875-17.684-12.037-38.731-25.767-49.689c-11.156-9.272-29.156,1.648-42.871,10.049c-5.142,3.36-6.853,9.25-4.276,14.303
					c7.728,12.635,22.313,20.228,24.897,35.381c2.586,15.995-5.976,34.501-23.124,37.848c-5.145,1.677-11.148-0.014-14.578,0.824
					c-35.15,13.425-69.459,5.809-105.474,10.815c-13.72,1.667-7.701,21.032-11.979,32.81c-16.302-10.118-20.612-38.741-41.192-36.24
					c-16.292,2.505-7.698,24.399-9.403,37.864c-0.848,12.624-17.149,3.346-24.87-0.872c-18.018-10.963-28.322-28.65-46.34-39.614
					c-6.007-4.216-14.582-3.384-20.588-7.6c-7.723-5.901-6.017-16.841-9.453-25.262c-0.858-0.843-2.574-1.686-4.289-0.847
					c-6.858,2.517-12.856,8.401-19.72,5.868c-22.303-7.603-44.606-16.888-67.751-4.29c-3.43,1.68-8.575,0.831-12.833,1.067
					l-0.008-10.175c0,0,1.058,0.002,3.124,0.004c25.998-6.027,49.153-5.999,74.034,8.339c12.869,7.591,18.854-14.286,29.146-13.432
					c9.435,1.694,2.588,19.361,12.026,25.265c20.592,13.491,36.04,28.66,53.205,45.515c6.007,5.058,17.161,12.646,20.587,6.758
					c6.85-13.458,3.4-38.713,24.841-36.162c17.153,1.704,20.601,24.434,36.044,32.027c-0.035-44.609,46.295-17.62,74.588-26.003
					c1.715-0.84,5.145-0.836,4.284-4.203c-1.716-1.685-4.289-1.688-5.148-4.215c12.861-3.351,26.58-5.859,39.444-5.003
					c12.864,0.857,27.446,5.083,36.871-5.847c17.992-21.862-1.75-44.611-18.057-60.623c-4.292-5.055-1.725-10.943,3.419-14.305
					c16.285-10.922,37.715-22.68,51.444-12.563c6.864,5.058,6.876,20.208,12.888,30.316c-0.006-6.733-3.44-12.629-5.16-18.523
					c9.45,21.895,16.329,44.629,21.493,69.044c1.72,5.052,4.296,9.264,6.872,13.475c-4.307-23.572-11.187-47.147-9.49-71.554
					c0.853-5.891-6.013-11.791-1.729-18.519c9.423-12.614,24.854-20.171,29.128-36.999c1.711-5.048,17.999-12.604,19.72-5.026
					c1.728,15.152-15.415,26.074-17.118,41.222c-0.854,5.891,3.438,10.945,8.585,11.794c18.012,4.23,18.849-22.702,32.567-26.053
					c19.719-5.868,38.609,24.455,58.342,34.579c-5.999,5.043-5.99,15.984-2.559,17.672c21.448,11.81,41.156-9.209,61.732-15.918
					c4.286-1.678,2.581,10.945,0.871,16.835c-6.849,15.142-23.138,21.015-33.419,33.627c21.441,2.551,43.735-1.632,65.178,2.604
					c-22.288,10.915-58.315-0.912-72.877,21.796c66.049,19.438,134.654,18.678,202.391,3.609c9.432-1.672-6.872-14.316-6.876-19.366
					c1.695-25.249,36.842-42.04,59.126-58.005c29.141-21.849,54.038,13.531,73.777,32.914c1.717,1.685,5.146-0.836,7.717-1.675
					c6.857-5.884,10.275-19.346,19.71-18.493c18.011,2.547,25.747,25.281,44.592,26.206L907.715,311.992z"/>
				<path d="M907.723,340.266c-21.414-7.332-42.86-16.616-66.006-5.702c-6.858,3.359-16.294-0.02-19.729-6.757
					c-10.309-21.896-17.193-53.046-46.35-51.397c-17.151,0.82-33.434,15.109-37.709,31.097c-5.982,26.085,0.901,54.71-12.801,79.103
					c-2.57,3.363-7.714,5.04-11.147,1.67c-11.159-14.322-21.463-30.326-41.187-30.351c-50.597-0.061-99.483-6.011-150.081-7.755
					c-6.86-0.008-14.578-0.018-22.296,1.656c-18.007,2.504-36.887-14.353-49.742-4.268c-5.142,4.202,12.016,11.798,20.592,12.649
					c33.448,4.249,68.603-4.126,99.488,11.902c-34.31-8.457-69.465-0.924-104.627-3.491c-19.726-1.707-46.33-26.147-40.341-44.657
					c6.844-20.192,37.722-13.422,56.582-21.816c5.143-2.518,12.003-3.352,13.715-8.399c1.713-2.523-2.575-2.528-4.291-3.372
					c-10.291-0.855-19.723,1.659-29.156,0.807c-5.146-0.007-5.149-5.057-6.868-9.267c-4.296-10.105-17.156-5.913-26.591-7.607
					c-4.289-0.847-6.864-5.059-11.153-5.905c-6.004-0.849-12.003,3.353-18.865,1.661c-12.009-3.381-18.878-14.331-28.317-21.918
					c-0.858-0.842-2.572-0.003-3.43,0.838c-1.707,9.255-2.559,17.671-3.408,26.93c-2.553,25.247,12.898,44.624,26.636,65.683
					c4.294,6.738,6.872,13.475,6.02,21.049c-0.854,4.208-4.282,7.57-7.715,5.041c-25.741-17.706-31.767-46.33-39.507-74.957
					c-5.161-19.365-21.465-31.167-36.054-44.651c-7.724-6.743-22.298-0.869-28.294,7.541c-0.856,1.682-0.854,4.207,0.005,5.892
					c6.014,13.474,21.455,20.226,24.896,34.539c6.022,23.574-4.246,53.02-28.253,59.725c-34.295,10.06-68.603,4.126-102.905,4.085
					c-6.86-0.008-12.002,4.194-14.57,10.083c-6.845,20.191,6.033,37.883,16.337,54.729c-22.306-11.811-34.338-44.65-55.777-44.676
					c-10.291-0.013,16.316,28.637,9.459,32.837c-30.859,15.954-66.914-30.381-100.372-45.571c-9.436-4.22-18.869-3.39-28.305-6.768
					c-10.295-5.063-14.593-17.692-21.46-26.118c-10.301-12.637-30.028-16.869-46.32-14.363
					c-16.291,3.347-27.428,18.483-45.405,19.137l-0.009-10.152c0,0,1.057,0.001,3.105-0.046
					c14.873-0.555,26.011-13.167,39.731-14.834c18.007-1.661,36.878,3.411,52.322,13.53c6.007,5.057,5.157,15.156,12.88,21.057
					c7.723,5.901,17.155,5.071,25.734,8.448c31.742,15.188,61.787,53.1,96.945,50.617c-2.584-14.311-14.6-26.109-10.323-41.255
					c1.706-10.939,13.721-0.825,18.012,4.23c11.159,12.639,18.033,29.48,34.331,35.393c-6.013-12.633-9.454-26.945-6.035-41.25
					c2.564-10.097,13.711-12.608,23.145-11.756c33.45,5.091,65.18,5.129,96.904-2.408c28.295-6.7,41.126-47.085,19.669-69.836
					c-6.866-6.741-17.161-12.646-16.312-22.745c2.562-13.464,23.138-20.172,33.434-14.268c27.456,17.708,35.199,48.86,43.799,79.17
					c4.3,15.155,12.893,37.891,30.904,39.596c0.852-6.733-0.011-13.467-3.446-19.362c-13.738-21.9-27.476-42.959-24.065-68.205
					c0.85-10.1-0.016-19.358-0.023-29.459c-0.861-5.051,8.565-12.615,10.285-7.563c4.297,11.788,14.595,21.06,25.746,24.439
					c9.436,3.378,16.288-6.714,24.005-9.23c15.434-3.349,30.022,10.136,42.037,20.251c3.433,3.37,0.865,10.101,2.582,11.786
					c14.586,9.276,35.159-1.642,52.313,2.588c-23.141,17.647-52.295,20.979-80.589,28.521c-5.145,1.677-11.146,4.194-11.142,9.245
					c-1.703,14.307,12.026,25.265,24.038,32.854c-2.576-5.053-16.307-16.011-8.59-17.686c15.434-3.348,30.872-1.646,46.308-2.469
					c-4.283,6.729,3.439,10.105,8.583,10.11c12.007,0.015,24.011-2.496,36.876,0.044c50.604,8.477,99.482,5.17,149.224,7.754
					c15.438,0.86,22.315,22.753,32.603,19.398c21.435-5.865,11.973-42.068,11.956-63.11c-0.015-17.676,19.7-30.277,35.988-37.833
					c34.288-17.634,47.186,26.148,63.499,49.734c1.718,2.528,6.007,5.059,9.436,2.537c24.858-14.278,46.301-10.044,69.435,3.14
					L907.723,340.266z"/>
				<path d="M907.745,368.617c0,0-1.058-0.002-3.102-0.073c-18.31-4.468-34.607-8.695-53.475-9.56
					c-26.585-0.874-42.038-21.935-48.919-48.035c-2.58-9.261-9.448-18.528-20.599-20.225c-16.296-2.545-26.575,10.91-30.853,24.372
					c-9.41,29.447-6.814,58.909-16.225,88.356c-2.565,9.255-11.988,21.869-21.429,12.6c-17.166-18.538-22.337-50.528-51.496-52.246
					c-43.736-0.895-87.479-9.363-131.216-9.416c-6.86-0.008-14.579-0.859-21.436,3.341c50.597,0.061,135.508,14.472,123.555,80.949
					c-34.351-59.8-107.248-64.938-170.709-65.855c-18.01-0.021-38.612-26.139-41.203-49.708
					c-0.864-8.418,11.139-11.77,18.855-14.286c9.431-3.355,18.863-4.186,26.576-10.068c-19.725-0.865-46.318-12.681-59.17,3.296
					c-2.569,3.363,0.013,15.15,2.591,22.729c7.735,21.893,42.926,59.811,10.344,66.505c-43.728,9.206-60.072-53.939-70.392-90.986
					c-2.58-9.261-7.733-17.685-14.598-23.584c-9.439-6.745-19.737-16.016-32.6-15.19c-3.43,0.839-4.284,5.046-2.568,5.89
					c24.033,26.121,23.204,63.153,0.069,87.534c-27.418,30.268-72.01,32.739-110.603,30.168c-7.719-0.01-12.86,5.035-12.855,12.609
					c1.73,19.361,22.319,27.803,29.192,43.803c3.438,9.263-10.28,12.613-17.999,11.762c-5.146-0.848-6.866-6.741-10.297-7.587
					c-42.889-11.835-78.919-27.87-116.672-53.166c-17.161-11.804-36.023-5.935-54.036-11.007
					c-18.872-6.756-21.464-30.326-38.624-42.131c-25.742-18.547-42.009,15.1-63.44,25.175c-3.429,1.68-8.572,4.198-11.147,1.67
					c-1.716-1.686-1.721-7.577-0.864-8.418c20.579-4.184,32.57-22.686,51.433-27.713c30.009-8.381,38.611,26.138,58.348,41.312
					c8.582,7.586,21.442,3.393,32.593,6.772c32.596,10.14,57.484,33.736,88.367,46.398c11.152,5.063,23.159,6.761,35.164,5.093
					c6.86-0.834,2.566-7.572,4.278-11.778c11.155,7.588,18.024,18.538,30.036,26.128c3.432,1.688,6.861,0.85,7.716-2.516
					c-0.002-3.367-1.719-5.053-3.436-7.579c-8.584-10.111-18.024-18.539-23.179-30.329c-4.295-9.263-4.307-23.571,5.982-25.243
					c33.441-5.852,66.031-2.445,98.612-11.665c25.721-7.544,35.99-35.307,37.686-59.714c0.844-17.674-15.458-26.952-24.045-41.271
					c-3.434-5.055,0.85-10.1,5.995-10.093c20.583,1.708,38.603,16.038,46.335,32.881c14.604,31.159,18.922,69.04,50.668,90.12
					c7.723,5.06,16.291-3.348,15.427-12.606c-2.588-19.362-16.32-33.686-24.052-50.529c4.288,0.847,12.87,8.432,12.864,0.856
					c0.852-7.574-15.451-17.693-6.02-21.891c26.575-11.752,54.028,1.748,82.328,1.782c-11.997,10.928-30.007,10.065-44.58,16.78
					c-8.573,3.356-12.854,11.768-7.702,20.19c10.304,16.847,22.327,38.744,37.764,38.763c58.314,0.07,120.919,1.828,165.545,43.124
					c-15.486-63.145-102.092-52.307-153.551-58.26c21.438-1.657,42.017-5,63.457-4.132c40.308,2.573,80.617,7.672,121.781,8.563
					c12.864,0.857,25.73,3.397,34.315,14.35c8.585,11.794,12.889,31.157,28.325,32.017c8.576,0.011,11.14-10.928,13.707-17.658
					c11.979-35.336-4.361-93.432,41.082-103.478c27.438-5.858,30.896,29.496,42.06,48.868c8.587,14.318,29.17,15.184,45.462,12.68
					c12.004-2.511,21.444,6.759,32.595,9.298c4.288,0.847,7.72,1.692,11.975,1.076L907.745,368.617z"/>
				<path d="M907.767,396.601c-47.141-7.305-102.893-20.839-114.943-76.404c-1.723-10.102-17.164-16.853-24.018-7.603
					c-25.7,34.478-16.234,74.89-27.354,112.752c-3.422,10.096-11.985,25.236-23.141,16.806
					c-22.309-15.177-23.188-42.111-41.211-59.809c-24.031-23.596-62.614-14.384-94.347-17.788
					c14.584,7.593,33.451,7.615,43.753,21.095c20.602,25.275,24.065,66.521,6.935,94.275
					c-16.328-42.944-42.086-81.692-89.263-95.217c-27.449-8.449-57.456,1.615-81.475-5.989
					c-19.729-5.915-48.909-35.409-41.212-62.333c1.711-5.049,10.285-6.722,15.428-10.924c-7.722-3.376-13.72,2.509-18.861,6.711
					c-4.285,4.203-5.137,10.935-2.56,16.83c11.166,22.738,30.047,40.436,35.213,66.535c0.862,5.893,9.44,7.587,9.442,11.795
					c0.014,16.834-6.828,41.234-25.691,44.578c-28.296,5.016-43.756-24.461-51.491-46.354c-4.297-10.946-7.736-22.734-11.175-33.681
					c-9.454-25.262-22.335-48.002-30.074-74.103c-2.579-8.42-10.303-15.162-19.737-16.857c6.896,43.776-8.505,89.208-44.501,117.782
					c-22.282,18.49-50.589,10.039-76.315,11.691c-6.003-0.007-4.281,7.57-0.849,10.941c8.583,9.269,24.883,16.863,20.605,30.325
					c-5.989,16.826-28.281,23.532-45.437,18.462c-19.728-5.073-36.888-15.194-53.191-27.839
					c-28.317-21.918-59.211-48.889-99.509-37.996c-24.864,6.704-36.898-29.502-54.922-47.199
					c-21.455-20.226-38.577,16.787-54.003,30.235c-5.999,5.043-14.57,10.083-21.434,7.55c-0.858-0.843-0.863-7.576-0.007-8.417
					c23.151-5.022,33.425-26.052,50.566-38.656c11.999-9.244,25.726-1.652,32.596,9.298c12.019,17.69,22.33,42.952,44.625,40.454
					c18.008-2.504,36.015-4.165,52.317,6.796c20.593,13.491,39.468,24.456,60.916,35.424c8.579,5.061,12.875,14.323,21.454,18.542
					c13.727,6.75,29.165,10.136,43.739,4.262c8.573-3.356,20.574-9.234,16.278-19.34c-5.156-13.473-22.311-17.702-26.61-32.857
					c-0.861-4.209,1.708-8.414,5.996-8.409c18.009-0.82,35.165,5.934,53.17,0.905c28.294-7.541,51.433-28.555,63.418-53.791
					c11.987-24.395,17.109-53.847-0.918-76.594c13.721-0.825,27.45,9.291,32.604,21.081c7.73,16.001,8.602,32.836,17.19,47.996
					c10.306,19.371,17.182,38.738,26.631,58.949c8.591,18.527,27.479,45.484,47.195,36.249
					c38.576-18.471,3.374-71.538-15.516-100.179c-4.293-6.738-6.871-14.316-3.447-21.888c5.994-10.935,19.71-18.493,32.578-12.586
					c-8.569,8.407-30.866,8.38-27.424,23.534c6.021,22.732,24.909,50.53,41.202,49.709c72.036-0.756,151.807,19.54,173.304,92.792
					c12.842-26.918,8.523-65.641-14.646-85.028c-17.162-13.486-40.317-15.197-60.906-23.639
					c38.596,5.938,81.467-3.269,116.644,16.973c18.874,10.124,19.751,34.533,34.344,51.385c3.434,4.212,7.724,7.584,12.87,8.432
					c6.86,0.009,10.286-5.879,12.854-10.926c13.696-31.968,7.665-67.325,19.646-100.137c2.566-7.571,5.134-14.302,11.132-20.187
					c7.714-5.883,21.436-5.024,24.872,3.397c14.606,32.843,30.924,64.005,69.52,69.942c16.295,1.703,31.733,5.089,47.141,8.169
					L907.767,396.601z"/>
				<path d="M907.789,425.077c-8.542,2.141-18.833,1.286-26.556-3.773c-21.449-12.65-36.899-30.345-63.487-33.743
					c-20.584-3.391-24.033-26.962-32.621-42.965c-1.718-3.368-3.437-7.579-7.725-7.584c-9.435-1.694-11.999,8.402-13.71,14.292
					c-9.414,24.397-7.678,50.491-10.23,76.58c-1.701,16.832-16.262,40.382-34.277,31.943
					c-21.447-10.126-28.328-35.385-39.492-55.599c-6.87-12.633-28.324-31.176-30.89-21.921
					c-11.121,34.496,18.088,100.182-17.92,112.764c-17.146,5.871-22.327-38.744-41.209-57.283c-2.574-2.528-7.721-3.376-8.58-5.902
					c-21.477-46.318-74.654-57.323-120.096-44.753c-1.715,0.84-5.147-0.848-6.862-1.691c0.86,3.367,3.435,5.054,6.865,5.899
					c10.293,2.538,32.585-4.169,30.016,0.036c-20.563,22.701-25.686,52.153-32.524,80.763c-4.274,15.986-23.141,16.806-35.154,6.691
					c-19.737-16.016-37.761-33.712-45.498-58.13c-10.315-31.996-13.776-69.876-38.664-93.473
					c-15.398,48.799-47.092,95.053-102.828,102.562c13.74,23.583-1.67,56.39-28.254,58.042
					c-51.452,2.463-90.073-36.301-132.975-64.128c-3.432-1.688-8.578-3.377-10.291-0.853c-12.852,15.135-30.003,15.114-45.445,7.52
					c-25.736-11.814-37.763-37.079-55.787-56.459c-6.865-5.9-14.579-0.018-19.72,5.026c-13.707,18.5-25.693,43.736-51.42,44.547
					c-0.002-3.367-0.007-9.259-0.007-9.259c30.013-3.33,36.849-33.623,58.275-49.589c3.429-1.68,7.717-1.674,10.291,0.013
					c24.89,25.28,52.374,78.339,98.662,52.302c19.716-10.918,39.466,21.932,60.915,34.582c28.312,16.026,59.204,39.63,91.782,27.886
					c26.577-9.227,25.696-38.687,6.816-55.543c67.751,2.606,110.583-56.261,113.106-117.699
					c24.889,23.598,34.359,70.742,46.394,106.107c9.455,28.629,36.936,76.637,66.079,58.155
					c22.285-14.283,17.109-52.164,36.815-75.707c0.856-0.841-0.859-2.526-1.718-2.527c-36.865,12.581-42.054-42.134-62.652-63.2
					c15.451,18.535,25.768,52.215,48.925,53.926c27.443,1.716,61.739-6.659,85.767,11.887
					c16.302,10.961,28.318,23.601,42.049,36.242c18.022,16.013,19.756,39.583,31.778,59.797c1.717,2.527,6.864,5.059,8.577,2.536
					c22.27-34.482,19.658-83.303-5.238-117c-1.716-1.686-0.002-2.525,0.855-3.365c10.289-1.672,20.582,0.866,30.019,4.244
					c8.579,4.219,15.444,10.118,19.738,18.54c12.881,21.899,19.769,57.258,47.214,58.975c11.148,0.854,18.856-11.761,21.42-23.541
					c7.69-35.342-1.773-74.07,23.073-103.499c5.997-6.727,13.72-0.825,15.44,5.068c9.456,28.629,28.339,48.851,57.505,58.986
					c20.587,6.759,39.468,25.298,63.446,23.078L907.789,425.077z"/>
				<path d="M907.811,453.306c-7.685,0.847-13.69-1.686-20.553-4.219c-22.306-10.969-30.05-42.962-54.062-42.99
					c-25.728-0.873-47.167-0.899-60.907-24.483c-4.285,3.363-4.281,8.413-5.135,12.62c-4.269,24.403,0.897,50.502-17.954,69.838
					c-10.283,10.088-27.43,15.959-40.301,6.685c-18.021-15.171-22.328-39.585-41.205-53.074c-3.432-1.688-4.284,5.045-5.139,9.252
					c-5.979,30.293,0.051,63.126-21.37,87.509c-7.71,9.249-17.153-3.388-23.162-10.128c-18.027-23.589-36.056-47.178-67.79-53.108
					c-4.289-0.847-3.436-7.579-0.865-10.101c19.712-15.127,5.113-39.553-12.039-41.257c-44.598-5.104-60.848,50.428-76.256,85.76
					c-4.28,10.095-19.714,13.443-30.009,8.381c-44.609-20.254-60.083-67.406-72.125-112.872c-0.86-3.367-5.155-12.631-8.582-7.585
					c-14.566,15.133-16.259,43.748-36.837,48.773c-42.013,10.049-50.554,53.807-81.41,74.812
					c-41.998,28.566-86.629-17.779-125.234-36.343c-3.431-0.846-6.862-2.533-9.435-1.694C42.567,471.64-3.759,448.859-32.954,401.69
					c-3.434-4.213-10.295-5.904-14.581-2.543c-20.567,17.65-29.116,51.308-59.958,52.938l-0.008-10.173c0,0,1.057-0.002,3.096-0.121
					c30.315-4.801,36.294-36.777,58.577-53.584c4.285-3.361,9.434,0.011,12.009,3.381c26.617,41.274,67.804,69.94,121.82,57.381
					c20.578-4.185,42.037,20.25,64.344,32.061c18.874,9.281,37.75,21.929,58.33,19.429c28.297-4.175,38.56-39.513,54.839-58.01
					c26.56-30.268,60.851-47.061,85.691-82.382c0-0.842,3.432,1.688,4.291,3.372c10.31,23.579,12.902,48.832,24.069,72.413
					c9.45,21.053,25.757,37.906,45.492,52.238c13.729,10.117,34.308,5.092,38.582-10.895c8.557-25.24,13.682-50.484,30.816-71.506
					c5.997-7.567,17.143-10.921,24.858-14.278c18.002-9.237,36.886,12.669,44.617,29.513c3.436,6.737-5.99,16.826-2.558,19.355
					c30.029,17.711,42.915,46.344,66.087,68.255c3.434,3.371,10.295,5.062,13.722,0.858c22.271-33.641,6.803-74.06,20.497-107.711
					c1.711-5.048,8.578,3.378,11.154,7.589c13.737,20.217,19.758,42.107,38.636,56.439c17.162,13.488,37.731-3.321,44.578-19.305
					c11.985-26.078-4.341-66.498,19.657-84.145c9.456,28.629,32.619,39.599,62.634,38.793c4.288,0.005,9.437,4.22,13.728,7.591
					c16.306,15.17,30.903,38.755,55.737,34.488L907.811,453.306z"/>
				<path d="M907.819,481.458c-31.688-5.451-42.862-38.29-66.032-57.677c-6.865-5.9-15.443-8.435-24.015-3.395
					c-13.715,8.4-23.997,18.487-33.425,26.052c-22.284,15.965-43.694,52.973-77.148,41.991c-9.435-3.378-18.02-15.172-26.593-10.974
					c-21.432,10.074-16.263,39.539-32.546,53.828c-8.569,7.564-19.724-0.023-24.875-7.604
					c-23.181-32.853-54.06-40.466-90.941-48.085c-24.872-4.238-4.312-30.306,6.827-42.918c3.426-5.046-1.723-9.26-6.866-7.583
					c-15.433,5.031-36.015,5.007-44.578,20.146c-14.559,26.075-26.527,73.194-64.276,52.949
					c-30.886-16.871-53.207-47.198-66.096-80.039c-1.719-4.211-7.721-2.534-9.434,0.83c-12.847,21.026-16.252,52.165-41.975,58.025
					c-25.724,5.02-38.573,22.68-55.713,36.967c-14.569,11.767-35.154,7.533-54.025,2.461
					c-37.739-8.463-71.203-31.228-108.078-30.431c-49.738,0.782-88.347-21.147-120.962-55.695
					c-7.725-8.427-16.292,2.505-22.289,9.232c-12.85,17.66-24.838,40.371-49.148,40.742c-2.045,0.034-3.102,0.035-3.102,0.035
					l-0.008-10.175c30.842-0.328,41.107-33.141,59.959-51.636c4.285-3.361,11.146-3.353,14.579,0.859
					c32.623,44.648,77.231,62.377,130.396,57.391c5.146-0.835,9.434,0.854,14.581,2.543c42.89,14.359,100.385,61.563,138.087,22.049
					c14.566-15.133,29.127-37.84,53.995-39.494c29.156-2.49,29.124-42.891,46.258-65.595c1.713-1.682,4.286-1.679,5.144,0.006
					c12.893,36.208,28.355,68.21,58.39,94.338c17.164,15.171,48.892,12.684,54.02-9.193c8.544-39.549,35.969-62.241,72.84-67.247
					c7.718-0.832,12.014,9.272,6.873,16c-6.852,10.092-17.996,15.971-18.844,28.595c0.004,4.208,3.438,9.263,6.868,9.267
					c39.449,0.889,66.909,23.647,90.945,53.977c4.292,5.055,13.73,10.116,19.727,3.391c14.565-18.5,14.546-42.066,23.963-62.256
					c0.855-2.523,2.567-6.73,5.999-5.043c18.871,5.915,28.324,31.177,52.333,26.155c32.583-5.853,36.845-38.673,49.69-62.225
					c1.713-2.523,11.157,10.955,18.014,5.071c14.569-10.924,33.427-22.685,48.875-7.517c19.739,19.383,32.626,48.016,62.587,51.729
					L907.819,481.458z"/>
				<path d="M907.856,509.666c-32.562-6.726-43.738-42.932-66.052-64.001c-5.149-5.056-12.014-9.272-18.87-4.23
					c-9.427,8.405-11.99,20.185-17.128,30.279c-4.282,6.729-7.707,13.458-16.281,15.973c-6.858,1.675-14.576,2.508-19.719,5.868
					c-27.432,14.275-56.588,15.082-84.881,24.307c-12.003,4.194-8.559,21.032-15.413,29.44c-10.281,11.771-29.154,4.174-40.31-4.257
					c-24.024-16.021-42.052-39.609-71.674-33.702c-3.914-0.004-7.842-0.009-11.782-0.014c-3.941-0.005-7.886-0.048-11.713-0.364
					c-21.486,1.115-30.078-19.096-41.238-34.26c-3.434-4.212-6.859,2.518-8.571,5.882c-8.565,12.615-17.989,25.228-32.564,29.42
					c-31.723,9.22-56.611-14.377-81.495-32.082c-7.722-4.218-17.159-10.12-23.154-0.027
					c-25.691,44.578-82.282,56.293-129.453,51.186c-54.889-5.116-106.354-18.644-161.243-24.602
					c-27.444-3.4-51.466-15.212-73.776-32.914c-4.292-4.214-11.155-8.431-17.156-5.071c-22.286,12.599-31.696,42.888-60.737,41.915
					c-3.913,0.143-6.946,0.14-8.991,0.137c-2.045-0.002-3.101-0.004-3.101-0.004l-0.008-10.174c0,0,1.057,0.002,3.102,0.004
					c2.045,0.003,5.07-0.036,8.965-0.347c23.061-3.801,35.909-22.303,48.759-40.804c8.566-11.773,20.577-5.867,28.301,1.717
					c16.307,16.012,34.328,31.184,57.484,33.736c52.317,6.797,100.35,17.796,151.813,29.641c23.159,5.92,48.031,9.316,70.321,0.085
					c15.432-5.873,29.146-15.115,45.435-20.987c21.434-7.55,29.992-28.581,45.416-44.555c3.427-4.205,9.434,0.012,13.724,3.383
					c24.885,18.547,42.062,51.394,76.362,48.067c22.295-2.498,33.427-22.684,41.131-41.192c3.423-9.256,17.133-23.547,19.71-17.651
					c8.587,14.318,1.746,39.56,24.05,47.162c23.159,6.762,48.878-4.149,68.614,11.866c18.022,15.172,42.063,52.234,63.486,32.06
					c10.282-10.088,11.119-37.021,29.129-36.157c48.024,0.9,103.749-20.917,125.155-63.817c5.993-11.776,19.714-12.602,28.296-4.175
					c22.313,21.069,34.347,55.593,66.046,63.081L907.856,509.666z"/>
				<path d="M907.879,537.946c-34.273-3.024-43.736-40.07-67.765-60.299c-3.432-2.529-8.577-2.535-10.291-0.854
					c-16.285,11.765-18.839,35.328-36.841,43.724c-24.861,10.912-54.021,9.193-81.456,17.577c-1.714,0.84-2.571,1.681-3.428,3.362
					c-2.567,5.889,0.012,14.308-5.131,17.669c-29.996,24.373-71.176,4.123-101.205-14.43c-6.863-3.375-12.869-6.749-20.9-6.982
					c-3.856-0.116-7.727-0.12-11.612-0.125c-3.885-0.005-7.785-0.01-11.698-0.016c-3.914-0.003-7.842-0.008-11.782-0.013
					c-53.779,3.638-108.665,1.888-159.279-20.897c-3.432-0.846-6.004-0.008-8.574,2.515c-6.853,8.408-10.274,21.029-22.278,23.54
					c-3.43,0.838-6.863-3.375-8.578-3.377c-42.878,1.632-84.894,7.473-127.777,1.53c-48.028-5.95-94.337-5.164-141.506-7.745
					c-28.301-1.719-54.036-11.849-82.341-17.774c-4.288-0.847-8.575-0.01-12.862,1.668c-20.575,8.392-39.431,21.837-63.313,19.788
					c-5.726-0.006-10.6-0.012-14.553-0.017c-7.907-0.01-12.133-0.015-12.133-0.015l-0.008-10.174c0,0,4.226,0.006,12.133,0.015
					c3.953,0.005,8.819-0.012,14.373-0.306c18.057-0.93,33.485-10.17,45.481-23.622c3.427-3.362,8.569-7.565,12.858-5.876
					c54.04,16.898,108.076,27.905,165.537,32.182c60.891,4.282,120.071,14.453,182.663,1.062
					c11.146-2.512,14.567-14.291,23.998-18.488c2.572-0.839,4.296,10.105,10.297,7.588c6.858-2.518,9.423-13.456,15.426-12.607
					c33.449,5.091,64.33,15.227,98.633,15.268c23.155,0.028,47.172,6.79,71.796,5.569c3.94,0.005,7.867,0.01,11.782,0.014
					c3.913,0.005,7.813,0.01,11.698,0.015c3.885,0.005,7.756,0.011,11.616,0.188c3.74,1.081,8.028,1.087,11.46,2.774
					c29.173,19.393,71.219,51.428,98.639,22.844c5.999-5.043,1.698-21.04,14.56-24.392c17.148-3.346,33.44-5.852,49.729-11.724
					c9.431-3.355,19.724-0.818,30.012-4.173c24.008-5.862,23.123-39.531,41.126-47.926c28.29-11.75,35.188,36.234,57.498,52.253
					c6.865,5.899,14.588,10.959,23.988,10.475L907.879,537.946z"/>
				<path d="M907.901,566.223c0,0-1.058-0.001-3.102-0.003c-24.308,1.535-42.332-17.845-63.779-27.129
					c-8.578-3.377-17.156-6.754-25.729-2.556c-8.573,4.198-15.429,10.081-24.86,11.754c-26.579,7.543-48.867,18.458-73.729,28.528
					c-44.579,18.463-90.904-2.635-135.789-10.87c-3.885-0.121-7.755-0.126-11.64-0.131c-7.771-0.009-15.602-0.018-23.481-0.027
					c-3.941-0.005-7.895-0.01-11.877-0.015c-45.333,2.353-89.933-4.435-134.528-7.014c-19.726-1.707-41.151,15.102-65.166,12.547
					c-69.467-5.133-138.081-16.157-208.397-8.666c-54.88,5.825-108.916-6.023-162.572,2.39c-4.382,0.039-8.619,0.048-12.684,0.043
					c-36.577-0.044-57.972-0.069-57.972-0.069l-0.008-10.174c0,0,12.942,0.016,35.904,0.044c3.28,0.004,6.765,0.008,10.445,0.012
					c7.647-0.036,15.366,0.815,23.082-1.7c46.298-13.411,90.042-3.259,136.354,1.005c6.003,0.006,12.007,0.857,18.866-0.819
					c20.578-4.184,39.442-7.527,60.026-4.978c12.007,1.697,23.156,2.553,34.306,4.249c39.451,3.414,77.183,0.935,117.495,9.399
					c24.016,5.079,45.448-3.312,60.871-20.969c2.571-1.68,6.002-1.676,8.575,0.011c43.753,20.253,89.203,19.466,135.357,14.516
					c4.012,0.005,7.972,0.01,11.912,0.015c7.881,0.01,15.711,0.019,23.481,0.028c3.885,0.005,7.756,0.01,11.622,0.07
					c5.449,1.588,10.594-0.089,14.884,2.441c44.609,20.254,100.359,30.421,144.927-3.193c24.855-17.646,60.017-16.761,84.868-39.457
					c5.142-5.885,13.721-1.666,19.727,2.549c18.021,15.172,33.474,36.232,59.506,37.957c2.038,0.038,3.095,0.039,3.095,0.039
					L907.901,566.223z"/>
			</g>
		</g>
	</g>
</g>
<g id="Layer_1">
</g>
</svg>
